HIERARCHY
ROOT joint_Root
{
	OFFSET 0.0 0.0 0.0
	CHANNELS 6 Xposition Yposition Zposition Zrotation Xrotation Yrotation 
	JOINT Hips
	{
		OFFSET 4.5925 91.4895 -427.239
		CHANNELS 6 Xposition Yposition Zposition Zrotation Xrotation Yrotation 
		JOINT Spine
		{
			OFFSET 15.7357 0.0 0.0
			CHANNELS 6 Xposition Yposition Zposition Zrotation Xrotation Yrotation 
			JOINT Chest
			{
				OFFSET 8.98455 -0.406207 0.0
				CHANNELS 6 Xposition Yposition Zposition Zrotation Xrotation Yrotation 
				JOINT Neck
				{
					OFFSET 16.3773 0.0 0.0
					CHANNELS 6 Xposition Yposition Zposition Zrotation Xrotation Yrotation 
					JOINT Head
					{
						OFFSET 6.45672 0.0 0.0
						CHANNELS 6 Xposition Yposition Zposition Zrotation Xrotation Yrotation 
						End Site
						{
							OFFSET 0.0 0.0 0.0
						}
					}
				}
				JOINT Shoulder_L
				{
					OFFSET 12.9942 -0.242716 4.98039
					CHANNELS 6 Xposition Yposition Zposition Zrotation Xrotation Yrotation 
					JOINT UpperArm_L
					{
						OFFSET 5.34809 0.0 0.0
						CHANNELS 6 Xposition Yposition Zposition Zrotation Xrotation Yrotation 
						JOINT LowerArm_L
						{
							OFFSET 24.3286 1.87007e-05 0.0
							CHANNELS 6 Xposition Yposition Zposition Zrotation Xrotation Yrotation 
							JOINT Hand_L
							{
								OFFSET 22.2916 0.0 0.0
								CHANNELS 6 Xposition Yposition Zposition Zrotation Xrotation Yrotation 
								End Site
								{
									OFFSET 0.0 0.0 0.0
								}
							}
						}
					}
				}
				JOINT Shoulder_R
				{
					OFFSET 12.9945 -0.242716 -4.98039
					CHANNELS 6 Xposition Yposition Zposition Zrotation Xrotation Yrotation 
					JOINT UpperArm_R
					{
						OFFSET -5.34813 0.0 0.0
						CHANNELS 6 Xposition Yposition Zposition Zrotation Xrotation Yrotation 
						JOINT LowerArm_R
						{
							OFFSET -24.3289 0.000322201 0.0
							CHANNELS 6 Xposition Yposition Zposition Zrotation Xrotation Yrotation 
							JOINT Hand_R
							{
								OFFSET -22.2915 -0.000108084 0.0
								CHANNELS 6 Xposition Yposition Zposition Zrotation Xrotation Yrotation 
								End Site
								{
									OFFSET 0.0 0.0 0.0
								}
							}
						}
					}
				}
			}
		}
		JOINT UpperLeg_L
		{
			OFFSET -2.19248 -6.46944 0.0
			CHANNELS 6 Xposition Yposition Zposition Zrotation Xrotation Yrotation 
			JOINT LowerLeg_L
			{
				OFFSET 39.0811 0.0 -1.23785e-05
				CHANNELS 6 Xposition Yposition Zposition Zrotation Xrotation Yrotation 
				JOINT Foot_L
				{
					OFFSET 40.9854 0.0 -1.26872e-05
					CHANNELS 6 Xposition Yposition Zposition Zrotation Xrotation Yrotation 
					JOINT Toes_L
					{
						OFFSET 11.7543 0.0 0.0
						CHANNELS 6 Xposition Yposition Zposition Zrotation Xrotation Yrotation 
						End Site
						{
							OFFSET 0.0 0.0 0.0
						}
					}
				}
			}
		}
		JOINT UpperLeg_R
		{
			OFFSET -2.19251 6.46944 0.0
			CHANNELS 6 Xposition Yposition Zposition Zrotation Xrotation Yrotation 
			JOINT LowerLeg_R
			{
				OFFSET -39.0811 -0.00228153 -0.0401928
				CHANNELS 6 Xposition Yposition Zposition Zrotation Xrotation Yrotation 
				JOINT Foot_R
				{
					OFFSET -40.9854 0.0 0.0
					CHANNELS 6 Xposition Yposition Zposition Zrotation Xrotation Yrotation 
					JOINT Toes_R
					{
						OFFSET -11.7543 0.0 0.0
						CHANNELS 6 Xposition Yposition Zposition Zrotation Xrotation Yrotation 
						End Site
						{
							OFFSET 0.0 0.0 0.0
						}
					}
				}
			}
		}
	}
}
MOTION
Frames:	5
Frame Time:	0.0333333
0.000000 0.000000 0.000000 0.000000 0.000000 -0.000000 126.925000 89.937500 -29.719900 88.311200 -1.003900 -0.038180 15.735700 0.000005 -0.000001 85.306100 79.033400 -84.039900 8.984550 -0.406207 -0.000000 14.118600 -1.703830 2.744650 16.377300 -0.000001 -0.000001 2.653360 -3.575730 1.756020 6.456720 -0.000001 -0.000000 -6.391870 -2.922750 1.639120 12.994200 -0.242716 4.980390 -91.070900 4.271190 -75.910400 5.348090 -0.000007 -0.000001 -61.340800 29.879400 -22.253000 24.328600 0.000019 0.000005 12.716800 18.317800 -35.679400 22.291600 -0.000001 0.000005 12.444800 5.253890 1.329690 12.994500 -0.242716 -4.980390 88.609900 9.814580 -81.897800 -5.348130 -0.000001 -0.000004 -59.107100 31.810700 -19.041700 -24.328900 0.000322 -0.000009 2.020580 4.282250 -25.301900 -22.291500 -0.000108 -0.000004 15.806700 5.402970 -3.034190 -2.192480 -6.469440 -0.000000 -175.730000 -9.628280 -8.241420 39.081100 -0.000007 -0.000012 0.021709 -0.026209 39.632200 40.985400 -0.000006 -0.000013 1.603790 1.852300 -73.257400 11.754300 -0.000000 0.000003 -0.007152 -0.080971 -19.873200 -2.192510 6.469440 -0.000001 -176.559000 16.855100 159.299000 -39.081100 -0.002282 -0.040193 -0.193922 0.275476 35.598900 -40.985400 0.000008 0.000006 5.122290 3.207160 -66.002400 -11.754300 -0.000006 -0.000006 -0.004429 -0.055833 -18.844500
0.000000 0.000000 0.000000 0.000000 0.000000 -0.000000 126.336000 90.070900 -28.335700 88.760800 -0.400287 0.178825 15.735700 0.000005 -0.000001 85.482400 79.091900 -84.317900 8.984550 -0.406207 -0.000000 14.004400 -1.635300 2.530890 16.377300 -0.000001 -0.000001 2.601590 -3.966680 1.915510 6.456720 -0.000001 -0.000000 -6.323560 -3.446410 1.656160 12.994200 -0.242716 4.980390 -91.063200 4.218200 -75.840200 5.348090 -0.000007 -0.000001 -62.441800 29.768900 -20.496400 24.328600 0.000019 0.000005 12.574900 18.557100 -35.027100 22.291600 -0.000001 0.000005 12.310500 5.253560 1.338460 12.994500 -0.242716 -4.980390 88.643400 9.578070 -81.899600 -5.348130 -0.000001 -0.000004 -59.543600 31.747100 -19.289600 -24.328900 0.000322 -0.000009 1.871510 3.852750 -25.947000 -22.291500 -0.000108 -0.000004 15.874000 5.403110 -3.038660 -2.192480 -6.469440 -0.000000 -175.790000 -8.374080 -10.572100 39.081100 -0.000007 -0.000012 0.036286 -0.036727 44.651500 40.985400 -0.000006 -0.000013 0.545790 1.095270 -70.023000 11.754300 -0.000000 0.000003 -0.009320 -0.098493 -20.589000 -2.192510 6.469440 -0.000001 -176.950000 17.692200 160.727000 -39.081100 -0.002282 -0.040193 -0.193411 0.276767 35.401900 -40.985400 0.000008 0.000006 5.566310 3.276310 -67.113400 -11.754300 -0.000006 -0.000006 -0.003947 -0.050887 -18.643000
0.000000 0.000000 0.000000 0.000000 0.000000 -0.000000 125.850000 90.187300 -26.971600 89.078300 0.036290 0.332438 15.735700 0.000005 -0.000001 86.117400 79.185800 -85.031700 8.984550 -0.406207 -0.000000 13.830000 -1.390700 2.340760 16.377300 -0.000001 -0.000001 2.564450 -4.304670 2.025300 6.456720 -0.000001 -0.000000 -6.258610 -4.022690 1.495770 12.994200 -0.242716 4.980390 -91.075900 4.220450 -75.683900 5.348090 -0.000007 -0.000001 -63.548000 29.497400 -18.912200 24.328600 0.000019 0.000005 12.480300 19.050900 -34.140800 22.291600 -0.000001 0.000005 12.131800 5.262170 1.108980 12.994500 -0.242716 -4.980390 88.685800 9.366270 -81.976200 -5.348130 -0.000001 -0.000004 -59.383300 32.062400 -19.778300 -24.328900 0.000322 -0.000009 1.734700 3.451460 -26.720100 -22.291500 -0.000108 -0.000004 15.828000 5.404450 -3.082970 -2.192480 -6.469440 -0.000000 -175.951000 -7.297880 -12.954900 39.081100 -0.000007 -0.000012 0.048154 -0.041589 49.181700 40.985400 -0.000006 -0.000013 -0.885857 -0.452016 -67.228300 11.754300 -0.000000 0.000003 -0.002330 -0.032781 -17.909800 -2.192510 6.469440 -0.000001 -177.296000 18.795400 162.164000 -39.081100 -0.002282 -0.040193 -0.188663 0.273484 35.064500 -40.985400 0.000008 0.000006 5.962980 3.802600 -68.151300 -11.754300 -0.000006 -0.000006 -0.003434 -0.045423 -18.420600
0.000000 0.000000 0.000000 0.000000 0.000000 -0.000000 125.484000 90.328200 -25.663700 89.330300 0.185282 0.333032 15.735700 0.000005 -0.000001 87.248300 79.315400 -86.253100 8.984550 -0.406207 -0.000000 13.589100 -0.964251 2.105680 16.377300 -0.000001 -0.000001 2.483370 -4.565850 2.073150 6.456720 -0.000001 -0.000000 -6.220520 -4.521300 1.311930 12.994200 -0.242716 4.980390 -91.126800 4.343420 -75.441400 5.348090 -0.000007 -0.000001 -64.567600 29.058300 -17.364400 24.328600 0.000019 0.000005 12.501600 19.581200 -33.488000 22.291600 -0.000001 0.000005 12.033700 5.259060 1.192210 12.994500 -0.242716 -4.980390 88.711500 9.303430 -82.079300 -5.348130 -0.000001 -0.000004 -58.418100 32.730600 -20.779100 -24.328900 0.000322 -0.000009 1.565490 3.031000 -27.349900 -22.291500 -0.000108 -0.000004 15.882900 5.410550 -3.281720 -2.192480 -6.469440 -0.000000 -176.193000 -7.114770 -14.796900 39.081100 -0.000007 -0.000012 0.050688 -0.039693 51.932900 40.985400 -0.000006 -0.000013 -0.978716 -1.110870 -67.101700 11.754300 -0.000000 0.000003 -0.000383 -0.006215 -16.829900 -2.192510 6.469440 -0.000001 -177.599000 19.796700 163.514000 -39.081100 -0.002282 -0.040193 -0.171979 0.255321 34.468800 -40.985400 0.000008 0.000006 6.484160 4.511390 -69.007200 -11.754300 -0.000006 -0.000006 -0.003283 -0.043767 -18.353100
0.000000 0.000000 0.000000 0.000000 0.000000 -0.000000 125.216000 90.536400 -24.376400 89.668600 0.163158 0.411250 15.735700 0.000005 -0.000001 88.488400 79.380300 -87.655600 8.984550 -0.406207 -0.000000 13.470700 -0.512906 1.726370 16.377300 -0.000001 -0.000001 2.351250 -4.749580 2.078990 6.456720 -0.000001 -0.000000 -6.193930 -4.921660 1.211930 12.994200 -0.242716 4.980390 -91.169600 4.448300 -75.253000 5.348090 -0.000007 -0.000001 -65.663100 28.223900 -15.778900 24.328600 0.000019 0.000005 12.347600 19.844000 -32.816500 22.291600 -0.000001 0.000005 12.007100 5.259280 1.186350 12.994500 -0.242716 -4.980390 88.717500 9.394000 -82.189900 -5.348130 -0.000001 -0.000004 -57.088900 33.217400 -22.071300 -24.328900 0.000322 -0.000009 1.742800 3.299940 -27.874900 -22.291500 -0.000108 -0.000004 15.924600 5.408600 -3.218880 -2.192480 -6.469440 -0.000000 -176.712000 -7.144060 -15.940200 39.081100 -0.000007 -0.000012 0.044317 -0.034371 52.200900 40.985400 -0.000006 -0.000013 -0.467883 -0.739661 -68.198100 11.754300 -0.000000 0.000003 -0.000531 -0.008510 -16.923100 -2.192510 6.469440 -0.000001 -178.123000 20.727400 165.132000 -39.081100 -0.002282 -0.040193 -0.154854 0.239191 33.472000 -40.985400 0.000008 0.000006 6.850470 5.344320 -69.614800 -11.754300 -0.000006 -0.000006 -0.003020 -0.040823 -18.233300
